<svg width="120" height="91" viewBox="0 0 120 91" fill="none" xmlns="http://www.w3.org/2000/svg">
<path d="M117.185 26.7747H103.153L99.2531 16.968C95.2453 6.8855 85.6805 0.37207 74.8828 0.37207H45.1172C34.3219 0.37207 24.7547 6.8855 20.7445 16.968L16.8445 26.7747H2.81485C0.984377 26.7747 -0.358592 28.505 0.0867209 30.2895L1.49297 35.9472C1.80469 37.2061 2.92969 38.0901 4.2211 38.0901H8.925C5.77735 40.8553 3.75 44.8746 3.75 49.4055V60.7209C3.75 64.521 5.19375 67.951 7.5 70.6054V83.3517C7.5 87.5172 10.8586 90.8953 15 90.8953H22.5C26.6414 90.8953 30 87.5172 30 83.3517V75.8081H90V83.3517C90 87.5172 93.3586 90.8953 97.5 90.8953H105C109.141 90.8953 112.5 87.5172 112.5 83.3517V70.6054C114.806 67.9533 116.25 64.5234 116.25 60.7209V49.4055C116.25 44.8746 114.223 40.8553 111.077 38.0901H115.781C117.073 38.0901 118.198 37.2061 118.509 35.9472L119.916 30.2895C120.359 28.505 119.016 26.7747 117.185 26.7747ZM34.6711 22.5715C36.3797 18.2763 40.5164 15.4593 45.1172 15.4593H74.8828C79.4836 15.4593 83.6203 18.2763 85.3289 22.5715L90 34.3183H30L34.6711 22.5715ZM22.5 60.6738C18 60.6738 15 57.6658 15 53.1537C15 48.6417 18 45.6337 22.5 45.6337C27 45.6337 33.75 52.4017 33.75 56.9137C33.75 61.4258 27 60.6738 22.5 60.6738ZM97.5 60.6738C93 60.6738 86.25 61.4258 86.25 56.9137C86.25 52.4017 93 45.6337 97.5 45.6337C102 45.6337 105 48.6417 105 53.1537C105 57.6658 102 60.6738 97.5 60.6738Z" fill="#00205E"/>
</svg>
