<svg width="156" height="16" viewBox="0 0 156 16" fill="none" xmlns="http://www.w3.org/2000/svg">
<path d="M8 11C9.65687 11 11 9.65687 11 8C11 6.34313 9.65687 5 8 5C6.34313 5 5 6.34313 5 8C5 9.65687 6.34313 11 8 11Z" fill="white" stroke="white" stroke-width="4"/>
<path d="M36 11C37.6569 11 39 9.65687 39 8C39 6.34313 37.6569 5 36 5C34.3431 5 33 6.34313 33 8C33 9.65687 34.3431 11 36 11Z" fill="#D1D1D1" stroke="#D1D1D1" stroke-width="4"/>
<path d="M64 11C65.6569 11 67 9.65687 67 8C67 6.34313 65.6569 5 64 5C62.3431 5 61 6.34313 61 8C61 9.65687 62.3431 11 64 11Z" fill="#D1D1D1" stroke="#D1D1D1" stroke-width="4"/>
<path d="M92 11C93.6569 11 95 9.65687 95 8C95 6.34313 93.6569 5 92 5C90.3431 5 89 6.34313 89 8C89 9.65687 90.3431 11 92 11Z" fill="#D1D1D1" stroke="#D1D1D1" stroke-width="4"/>
<path d="M120 11C121.657 11 123 9.65687 123 8C123 6.34313 121.657 5 120 5C118.343 5 117 6.34313 117 8C117 9.65687 118.343 11 120 11Z" fill="#D1D1D1" stroke="#D1D1D1" stroke-width="4"/>
<path d="M148 11C149.657 11 151 9.65687 151 8C151 6.34313 149.657 5 148 5C146.343 5 145 6.34313 145 8C145 9.65687 146.343 11 148 11Z" fill="#D1D1D1" stroke="#D1D1D1" stroke-width="4"/>
</svg>
